<?xml version="1.0" encoding="UTF-8"?>
<!DOCTYPE svg PUBLIC "-//W3C//DTD SVG 1.1//EN" "http://www.w3.org/Graphics/SVG/1.1/DTD/svg11.dtd">
<!-- Creator: CorelDRAW 2020 (64-Bit Not for commercial use) -->
<svg xmlns="http://www.w3.org/2000/svg" xml:space="preserve" width="220mm" height="220mm" version="1.1" style="shape-rendering:geometricPrecision; text-rendering:geometricPrecision; image-rendering:optimizeQuality; fill-rule:evenodd; clip-rule:evenodd"
viewBox="0 0 22000 22000"
 xmlns:xlink="http://www.w3.org/1999/xlink"
 xmlns:xodm="http://www.corel.com/coreldraw/odm/2003">
 <defs>
  <style type="text/css">
   <![CDATA[
    .str2 {stroke:#FEFEFE;stroke-width:105.83;stroke-miterlimit:22.9256}
    .str1 {stroke:#373435;stroke-width:105.83;stroke-miterlimit:22.9256}
    .str0 {stroke:#373435;stroke-width:17.64;stroke-miterlimit:22.9256}
    .fil0 {fill:none}
    .fil1 {fill:#9D98CA}
   ]]>
  </style>
 </defs>
 <g id="Layer_x0020_1">
  <metadata id="CorelCorpID_0Corel-Layer"/>
  <path class="fil0 str0" d="M10871.37 10038.02c0,-736.38 -559.64,-1333.34 -1250.01,-1333.34 -690.35,0 -1249.99,596.96 -1249.99,1333.34 0,1472.76 1119.29,2666.66 2500,2666.66 1380.7,0 2500,-1193.9 2500,-2666.66 0,-2209.14 -1678.93,-4000 -3750.01,-4000 -2071.06,0 -3749.99,1790.86 -3749.99,4000 0,2945.51 2238.58,5333.32 5000,5333.32 2761.41,0 4999.99,-2387.81 4999.99,-5333.32 0,-3681.91 -2798.22,-6666.68 -6250,-6666.68 -3451.77,0 -6249.99,2984.77 -6249.99,6666.68 0,4418.27 3357.87,8000 7500,8000 4142.13,0 7500,-3581.73 7500,-8000 0,-5154.67 -3917.52,-9333.34 -8750.01,-9333.34 -4832.48,0 -8749.99,4178.67 -8749.99,9333.34 0,5891.03 4477.16,10666.66 10000,10666.66 5522.84,0 9999.99,-4775.63 9999.99,-10666.66"/>
  <rect class="fil1 str1" x="871.38" y="704.68" width="19999.99" height="20000"/>
  <path class="fil0 str2" d="M10871.37 10044.69c0,-729.02 -554.05,-1320.01 -1237.51,-1320.01 -683.44,0 -1237.49,590.99 -1237.49,1320.01 0,1458.03 1108.1,2639.99 2475,2639.99 1366.9,0 2475,-1181.96 2475,-2639.99 0,-2187.05 -1662.14,-3960 -3712.51,-3960 -2050.35,0 -3712.49,1772.95 -3712.49,3960 0,2916.06 2216.19,5279.98 4950,5279.98 2733.8,0 4949.99,-2363.92 4949.99,-5279.98 0,-3645.1 -2770.24,-6600.02 -6187.5,-6600.02 -3417.25,0 -6187.49,2954.92 -6187.49,6600.02 0,4374.08 3324.29,7920 7425,7920 4100.71,0 7425,-3545.92 7425,-7920 0,-5103.13 -3878.35,-9240.01 -8662.51,-9240.01 -4784.16,0 -8662.49,4136.88 -8662.49,9240.01 0,5832.11 4432.38,10559.99 9900,10559.99 5467.61,0 9899.99,-4727.88 9899.99,-10559.99"/>
 </g>
</svg>
