<?xml version="1.0" encoding="UTF-8"?>
<!DOCTYPE svg PUBLIC "-//W3C//DTD SVG 1.1//EN" "http://www.w3.org/Graphics/SVG/1.1/DTD/svg11.dtd">
<!-- Creator: CorelDRAW 2020 (64-Bit Not for commercial use) -->
<svg xmlns="http://www.w3.org/2000/svg" xml:space="preserve" width="220mm" height="220mm" version="1.1" style="shape-rendering:geometricPrecision; text-rendering:geometricPrecision; image-rendering:optimizeQuality; fill-rule:evenodd; clip-rule:evenodd"
viewBox="0 0 22000 22000"
 xmlns:xlink="http://www.w3.org/1999/xlink"
 xmlns:xodm="http://www.corel.com/coreldraw/odm/2003">
 <defs>
  <style type="text/css">
   <![CDATA[
    .str0 {stroke:#FEFEFE;stroke-width:105.83;stroke-miterlimit:22.9256}
    .fil0 {fill:none}
   ]]>
  </style>
 </defs>
 <g id="Layer_x0020_1">
  <metadata id="CorelCorpID_0Corel-Layer"/>
  <polygon class="fil0 str0" points="10934.52,1103.89 15934.52,4923.55 20934.52,8743.22 19024.69,14923.55 17114.86,21103.89 10934.52,21103.89 4754.18,21103.89 2844.35,14923.55 934.52,8743.22 5934.52,4923.55 "/>
  <polygon class="fil0 str0" points="10934.52,21103.89 5934.52,17284.23 934.52,13464.56 2844.35,7284.23 4754.18,1103.89 10934.52,1103.89 17114.86,1103.89 19024.69,7284.23 20934.52,13464.56 15934.52,17284.23 "/>
  <polygon class="fil0 str0" points="934.52,11103.89 4754.18,6103.89 8573.85,1103.89 14754.18,3013.72 20934.52,4923.55 20934.52,11103.89 20934.52,17284.23 14754.18,19194.06 8573.85,21103.89 4754.18,16103.89 "/>
  <polygon class="fil0 str0" points="20934.52,11103.89 17114.86,16103.89 13295.19,21103.89 7114.86,19194.06 934.52,17284.23 934.52,11103.89 934.52,4923.55 7114.86,3013.72 13295.19,1103.89 17114.86,6103.89 "/>
  <polygon class="fil0 str0" points="10872.47,2427.6 12634.97,8168.69 18372.47,8157.09 13724.25,11693.68 15507.73,17427.6 10872.47,13872.25 6237.21,17427.6 8020.69,11693.68 3372.47,8157.09 9109.97,8168.69 "/>
  <polygon class="fil0 str0" points="10872.47,3927.6 12282.47,8520.47 16872.47,8511.19 13153.9,11340.46 14580.67,15927.6 10872.47,13083.32 7164.27,15927.6 8591.04,11340.46 4872.47,8511.19 9462.47,8520.47 "/>
  <polygon class="fil0 str0" points="10872.47,5427.6 11929.97,8872.25 15372.47,8865.29 12583.54,10987.25 13653.62,14427.6 10872.47,12294.39 8091.32,14427.6 9161.4,10987.25 6372.47,8865.29 9814.97,8872.25 "/>
  <polygon class="fil0 str0" points="10872.47,17427.6 9109.97,11686.51 3372.47,11698.11 8020.69,8161.52 6237.21,2427.6 10872.47,5982.95 15507.73,2427.6 13724.25,8161.52 18372.47,11698.11 12634.97,11686.51 "/>
  <polygon class="fil0 str0" points="10872.47,15927.6 9462.47,11334.73 4872.47,11344.01 8591.04,8514.74 7164.27,3927.6 10872.47,6771.88 14580.67,3927.6 13153.9,8514.74 16872.47,11344.01 12282.47,11334.73 "/>
  <polygon class="fil0 str0" points="10872.47,14427.6 9814.97,10982.95 6372.47,10989.91 9161.4,8867.95 8091.32,5427.6 10872.47,7560.81 13653.62,5427.6 12583.54,8867.95 15372.47,10989.91 11929.97,10982.95 "/>
 </g>
</svg>
